/* XPM */
static char * iceMC_32x32_xpm[] = {
"32 32 887 2",
"  	c None",
". 	c #24316F",
"+ 	c #4954AD",
"@ 	c #757CEA",
"# 	c #9FA4FE",
"$ 	c #C8CCFE",
"% 	c #E5EDFE",
"& 	c #DBEFFE",
"* 	c #B8CEFE",
"= 	c #C4CDFF",
"- 	c #B4A6FE",
"; 	c #A28EFE",
"> 	c #A08DFE",
", 	c #B3AEFE",
"' 	c #D3EBFE",
") 	c #DDFDFF",
"! 	c #DBDBFE",
"~ 	c #BFB5FF",
"{ 	c #BBB4FE",
"] 	c #A79DFE",
"^ 	c #9484FE",
"/ 	c #8C7CFE",
"( 	c #8775F8",
"_ 	c #806DEC",
": 	c #7F6AE6",
"< 	c #8E7DFC",
"[ 	c #9A8FFE",
"} 	c #ADA6FE",
"| 	c #C2BEFE",
"1 	c #ABA9FE",
"2 	c #9894F7",
"3 	c #5C60C3",
"4 	c #5963AC",
"5 	c #121E49",
"6 	c #24306D",
"7 	c #4752AA",
"8 	c #7278E5",
"9 	c #8D8FFA",
"0 	c #B0B0FD",
"a 	c #DCDEFE",
"b 	c #E4F8FE",
"c 	c #DBF7FF",
"d 	c #D9E6FE",
"e 	c #D9DCFF",
"f 	c #D1D1FE",
"g 	c #D4E4FE",
"h 	c #C9FAFE",
"i 	c #C5FEFE",
"j 	c #E5FCFE",
"k 	c #D4D0FF",
"l 	c #BEB4FE",
"m 	c #BEB8FE",
"n 	c #A499FE",
"o 	c #8B79FC",
"p 	c #8371F1",
"q 	c #7F69E5",
"r 	c #8872F3",
"s 	c #8E81FC",
"t 	c #9F97FE",
"u 	c #ADA8FE",
"v 	c #BFBCFE",
"w 	c #A0A1F9",
"x 	c #575EB0",
"y 	c #3A4B7C",
"z 	c #111F4B",
"A 	c #121F4A",
"B 	c #24316D",
"C 	c #444FA5",
"D 	c #646BD4",
"E 	c #7376E6",
"F 	c #8686F2",
"G 	c #A2A0FB",
"H 	c #BFBCFD",
"I 	c #D3DCFE",
"J 	c #D8E7FE",
"K 	c #DEF9FE",
"L 	c #CDFEFE",
"M 	c #C1FEFE",
"N 	c #BCFEFE",
"O 	c #CEFEFE",
"P 	c #E6EBFF",
"Q 	c #C2B7FE",
"R 	c #C7C2FE",
"S 	c #BFBBFE",
"T 	c #A294FE",
"U 	c #9483FE",
"V 	c #8875F7",
"W 	c #8169E6",
"X 	c #836CEC",
"Y 	c #8D87F8",
"Z 	c #7B8EFE",
"` 	c #518BFF",
" .	c #68A7FE",
"..	c #85BAFE",
"+.	c #A6CDFE",
"@.	c #97EDFE",
"#.	c #1B2B64",
"$.	c #121F4C",
"%.	c #121F4B",
"&.	c #424DA2",
"*.	c #6168D0",
"=.	c #767AEB",
"-.	c #7C7EF1",
";.	c #7E7DF1",
">.	c #968EF7",
",.	c #BBB2FE",
"'.	c #CECDFE",
").	c #DEF8FE",
"!.	c #CCFEFE",
"~.	c #CFFEFE",
"{.	c #DEF3FE",
"].	c #C5BDFF",
"^.	c #B7A8FE",
"/.	c #BFB5FE",
"(.	c #CFCDFE",
"_.	c #B5ABFE",
":.	c #A599FE",
"<.	c #917EFC",
"[.	c #846BEA",
"}.	c #8A7DF1",
"|.	c #7B8FFE",
"1.	c #4CAAFE",
"2.	c #80EBFE",
"3.	c #8FFDFE",
"4.	c #73FAFE",
"5.	c #6CE4FE",
"6.	c #5FA6EE",
"7.	c #344594",
"8.	c #12204C",
"9.	c #6B6EDA",
"0.	c #25264A",
"a.	c #000000",
"b.	c #7F79A9",
"c.	c #CFCEFE",
"d.	c #C5D1E2",
"e.	c #616572",
"f.	c #7A70AA",
"g.	c #796CA9",
"h.	c #8F77F7",
"i.	c #9596F6",
"j.	c #6090FE",
"k.	c #A0F1FE",
"l.	c #85FEFE",
"m.	c #5CEDFE",
"n.	c #56B0FB",
"o.	c #4673D7",
"p.	c #3953AD",
"q.	c #5866CE",
"r.	c #324390",
"s.	c #4651A8",
"t.	c #686FDC",
"u.	c #404381",
"v.	c #29294E",
"w.	c #605BA3",
"x.	c #988EE1",
"y.	c #15131D",
"z.	c #272339",
"A.	c #120F1D",
"B.	c #6E5FA9",
"C.	c #3B3655",
"D.	c #7869C1",
"E.	c #B2B6FE",
"F.	c #7CA7FE",
"G.	c #ACFEFE",
"H.	c #65F5FE",
"I.	c #5BABFD",
"J.	c #4F74E2",
"K.	c #405BBA",
"L.	c #354CA0",
"M.	c #6E7AED",
"N.	c #5463C8",
"O.	c #1D2D67",
"P.	c #24316E",
"Q.	c #4C57B3",
"R.	c #4F559E",
"S.	c #333655",
"T.	c #6E73A6",
"U.	c #212236",
"V.	c #202038",
"W.	c #13121D",
"X.	c #4A3F72",
"Y.	c #8872E3",
"Z.	c #6554A9",
"`.	c #3A3755",
" +	c #2E3639",
".+	c #B7B8E2",
"++	c #796FA9",
"@+	c #8682DB",
"#+	c #B6B9FE",
"$+	c #9EAEFE",
"%+	c #B0F8FE",
"&+	c #64E9FE",
"*+	c #5A90F9",
"=+	c #506DD8",
"-+	c #4962C5",
";+	c #4156B2",
">+	c #939AFE",
",+	c #707BED",
"'+	c #5564CA",
")+	c #364797",
"!+	c #25316F",
"~+	c #333B79",
"{+	c #272A50",
"]+	c #838AE1",
"^+	c #2D2B50",
"/+	c #AEA2FE",
"(+	c #B5A7FF",
"_+	c #817EA9",
":+	c #414B55",
"<+	c #485155",
"[+	c #3E3A55",
"}+	c #2F2F39",
"|+	c #4A426F",
"1+	c #737DDE",
"2+	c #99A3F3",
"3+	c #B1B4FE",
"4+	c #B9E5FE",
"5+	c #81F1FE",
"6+	c #5591F6",
"7+	c #4C69D1",
"8+	c #556CD7",
"9+	c #5166CE",
"0+	c #B0B2FF",
"a+	c #9298FE",
"b+	c #6F7AEC",
"c+	c #5160C3",
"d+	c #31428F",
"e+	c #1A2960",
"f+	c #111633",
"g+	c #1A1E3D",
"h+	c #9EA6FE",
"i+	c #3A3E55",
"j+	c #2B2D39",
"k+	c #D6EBFE",
"l+	c #8FA9A9",
"m+	c #465355",
"n+	c #110F1C",
"o+	c #4859B5",
"p+	c #4F5FB9",
"q+	c #B3B8FC",
"r+	c #B4C1FF",
"s+	c #AFF9FF",
"t+	c #5AADF8",
"u+	c #4666CC",
"v+	c #5168D1",
"w+	c #6173E3",
"x+	c #CCCAFF",
"y+	c #B4B6FE",
"z+	c #9399FE",
"A+	c #6E7AEB",
"B+	c #5261C5",
"C+	c #30418C",
"D+	c #19285E",
"E+	c #060B1A",
"F+	c #0D1127",
"G+	c #7A82F1",
"H+	c #444771",
"I+	c #14151D",
"J+	c #363839",
"K+	c #A9C1C7",
"L+	c #8B93A9",
"M+	c #3D3B55",
"N+	c #C7CCFE",
"O+	c #AC9CFE",
"P+	c #7E74BC",
"Q+	c #394895",
"R+	c #25377A",
"S+	c #6776CF",
"T+	c #B8BBFD",
"U+	c #BDD8FE",
"V+	c #85E2FE",
"W+	c #4873D9",
"X+	c #4B63C8",
"Y+	c #5E6FDD",
"Z+	c #C9C3FF",
"`+	c #CCC9FF",
" @	c #B3B4FF",
".@	c #2E3E87",
"+@	c #17265A",
"@@	c #060A19",
"#@	c #040711",
"$@	c #4751A9",
"%@	c #6D73DF",
"&@	c #3D3E6E",
"*@	c #13131C",
"=@	c #746BA9",
"-@	c #393555",
";@	c #454555",
">@	c #414155",
",@	c #373055",
"'@	c #47529F",
")@	c #223272",
"!@	c #27377B",
"~@	c #7A85DA",
"{@	c #B8BCFE",
"]@	c #B9E8FE",
"^@	c #62AAF4",
"/@	c #425DBE",
"(@	c #5164CA",
"_@	c #B8AFFF",
":@	c #CBC9FF",
"<@	c #B4B5FF",
"[@	c #9096FE",
"}@	c #717CEE",
"|@	c #515FC1",
"1@	c #101B3D",
"2@	c #060B19",
"3@	c #434EA3",
"4@	c #6269D2",
"5@	c #5456AC",
"6@	c #252549",
"7@	c #7675DA",
"8@	c #6D6EC2",
"9@	c #363954",
"0@	c #474755",
"a@	c #3B3555",
"b@	c #342E51",
"c@	c #3B3855",
"d@	c #848DF3",
"e@	c #4050A6",
"f@	c #1C2C66",
"g@	c #29397E",
"h@	c #8F98E5",
"i@	c #BBC3FF",
"j@	c #A8E6FE",
"k@	c #456DCE",
"l@	c #3E53AC",
"m@	c #A69AFF",
"n@	c #B3B4FE",
"o@	c #9095FE",
"p@	c #727BED",
"q@	c #505DBC",
"r@	c #2C3B82",
"s@	c #162557",
"t@	c #111E48",
"u@	c #131F4B",
"v@	c #4A55B0",
"w@	c #6F78EA",
"x@	c #8B92F8",
"y@	c #A3ADFE",
"z@	c #AAB4FB",
"A@	c #CDD1FD",
"B@	c #AFA6FE",
"C@	c #947FF1",
"D@	c #B1A7FE",
"E@	c #A8AAFE",
"F@	c #6672E0",
"G@	c #32428E",
"H@	c #32438B",
"I@	c #9CA3ED",
"J@	c #C3D3FE",
"K@	c #74B4F0",
"L@	c #2F4798",
"M@	c #9C8DFF",
"N@	c #B8B0FF",
"O@	c #C8C2FF",
"P@	c #C4C0FE",
"Q@	c #A3A0FE",
"R@	c #8889FC",
"S@	c #6C71DE",
"T@	c #4C56B0",
"U@	c #2D397D",
"V@	c #162252",
"W@	c #101D46",
"X@	c #273474",
"Y@	c #515EBF",
"Z@	c #818AF3",
"`@	c #A2A7FF",
" #	c #A6A8FB",
".#	c #8C8AF2",
"+#	c #908BF7",
"@#	c #9D91F7",
"##	c #8671EC",
"$#	c #A79AFE",
"%#	c #BEBCFE",
"&#	c #8189F7",
"*#	c #5463C7",
"=#	c #2B3B82",
"-#	c #1B2B65",
";#	c #3B4B98",
">#	c #B6BBFB",
",#	c #B2E6FD",
"'#	c #335EB0",
")#	c #9888FF",
"!#	c #9B8DFF",
"~#	c #A79BFF",
"{#	c #B5ABFF",
"]#	c #C1B6FE",
"^#	c #BBB1FE",
"/#	c #B5ACFE",
"(#	c #A89FFC",
"_#	c #8A85E4",
":#	c #4E51A8",
"<#	c #252D68",
"[#	c #151F4C",
"}#	c #0F1A40",
"|#	c #111C45",
"1#	c #232F6B",
"2#	c #444DA2",
"3#	c #6268CE",
"4#	c #7274E2",
"5#	c #8D8AF8",
"6#	c #928BF2",
"7#	c #7C6FD9",
"8#	c #816BE6",
"9#	c #A496FE",
"0#	c #C8C5FE",
"a#	c #979AFE",
"b#	c #737DF0",
"c#	c #4C5BBA",
"d#	c #2A3B82",
"e#	c #1C2D67",
"f#	c #4C5CAD",
"g#	c #D1DAFE",
"h#	c #7099D9",
"i#	c #A597FF",
"j#	c #9888FE",
"k#	c #9C8CFF",
"l#	c #AA9AFF",
"m#	c #BCB2FE",
"n#	c #BDB4FE",
"o#	c #BCB4FE",
"p#	c #B8AEFE",
"q#	c #B4A8FF",
"r#	c #ACA1FB",
"s#	c #7672C8",
"t#	c #373A7C",
"u#	c #161D47",
"v#	c #0D1638",
"w#	c #0F193E",
"x#	c #202A62",
"y#	c #444EA3",
"z#	c #7073E1",
"A#	c #7E7DE6",
"B#	c #413F89",
"C#	c #816FDB",
"D#	c #7C65E0",
"E#	c #A193FE",
"F#	c #C0BAFF",
"G#	c #A4A5FE",
"H#	c #868BFC",
"I#	c #6772E0",
"J#	c #4252AA",
"K#	c #21316F",
"L#	c #1A2A61",
"M#	c #737FC7",
"N#	c #BDCDF3",
"O#	c #B8ABFE",
"P#	c #9E8FFE",
"Q#	c #9685FF",
"R#	c #9F8DFF",
"S#	c #B2AFFE",
"T#	c #A4A3FC",
"U#	c #B5B2FE",
"V#	c #C0B8FF",
"W#	c #AB9DFE",
"X#	c #A79DFA",
"Y#	c #706CC6",
"Z#	c #26295C",
"`#	c #0C122F",
" $	c #0B112E",
".$	c #171E49",
"+$	c #2B316E",
"@$	c #232656",
"#$	c #101029",
"$$	c #7763CB",
"%$	c #7862DB",
"&$	c #9B8CFE",
"*$	c #C3BBFE",
"=$	c #ABAAFE",
"-$	c #8086F9",
";$	c #656FDB",
">$	c #414EA4",
",$	c #212F6A",
"'$	c #172558",
")$	c #2A397A",
"!$	c #B4BFFB",
"~$	c #BBAFFF",
"{$	c #AFA2FF",
"]$	c #9988FF",
"^$	c #9581FE",
"/$	c #B6ABFE",
"($	c #9595FA",
"_$	c #6C72DF",
":$	c #7378E6",
"<$	c #A2A2FD",
"[$	c #B0A5FE",
"}$	c #A497FE",
"|$	c #AC9EFE",
"1$	c #988FEA",
"2$	c #4B4A8F",
"3$	c #10122E",
"4$	c #060818",
"5$	c #03040E",
"6$	c #02040C",
"7$	c #3A376F",
"8$	c #7660D6",
"9$	c #725DD3",
"0$	c #9483FD",
"a$	c #BAB7FE",
"b$	c #8B8EFC",
"c$	c #6970DE",
"d$	c #4852AC",
"e$	c #2A367A",
"f$	c #172354",
"g$	c #1C285D",
"h$	c #A2ABF1",
"i$	c #B9ADFF",
"j$	c #B9ACFF",
"k$	c #A495FF",
"l$	c #907BFC",
"m$	c #AD9EFE",
"n$	c #7F81E9",
"o$	c #434DA1",
"p$	c #343E87",
"q$	c #545EBD",
"r$	c #898DEF",
"s$	c #B8B4FE",
"t$	c #B4AAFE",
"u$	c #A495FE",
"v$	c #A99BFF",
"w$	c #857DD5",
"x$	c #4A4887",
"y$	c #242451",
"z$	c #2E2E65",
"A$	c #8076D2",
"B$	c #836BE1",
"C$	c #735BD0",
"D$	c #8C78F7",
"E$	c #AA9EFE",
"F$	c #C3BDFE",
"G$	c #9E9EFE",
"H$	c #7479EA",
"I$	c #4953AD",
"J$	c #283374",
"K$	c #172251",
"L$	c #182454",
"M$	c #9AA1E2",
"N$	c #B5AAFF",
"O$	c #AFA0FF",
"P$	c #927CFA",
"Q$	c #A391FB",
"R$	c #6266BD",
"S$	c #192354",
"T$	c #162151",
"U$	c #1D295F",
"V$	c #38438F",
"W$	c #0C0D18",
"X$	c #14141D",
"Y$	c #BAB0FE",
"Z$	c #A69AFE",
"`$	c #12101D",
" %	c #A292FE",
".%	c #9C8EF3",
"+%	c #A092F4",
"@%	c #A18EFD",
"#%	c #715CC7",
"$%	c #34295E",
"%%	c #695EA9",
"&%	c #BDB5FE",
"*%	c #B6B3FE",
"=%	c #878AF8",
"-%	c #5E66CB",
";%	c #273271",
">%	c #29336C",
",%	c #BABFFE",
"'%	c #B4AAFF",
")%	c #BAAEFF",
"!%	c #B6A8FF",
"~%	c #9884FA",
"{%	c #9A85F8",
"]%	c #6063BC",
"^%	c #3D4692",
"/%	c #6F74CE",
"(%	c #646CBC",
"_%	c #404893",
":%	c #14162A",
"<%	c #7E7DC0",
"[%	c #7E79AA",
"}%	c #262439",
"|%	c #8676E3",
"1%	c #927EFE",
"2%	c #8F7AFD",
"3%	c #7965D7",
"4%	c #0E0B19",
"5%	c #1B1631",
"6%	c #0F0D1B",
"7%	c #110F1D",
"8%	c #B0A4FE",
"9%	c #C0BBFE",
"0%	c #9495FD",
"a%	c #6B71DE",
"b%	c #323D84",
"c%	c #6A6FB3",
"d%	c #A6AFFE",
"e%	c #B8ADFF",
"f%	c #B6A9FF",
"g%	c #9B87FA",
"h%	c #9A85F6",
"i%	c #8B8BEF",
"j%	c #A09EF9",
"k%	c #AFA9FE",
"l%	c #ADA7FF",
"m%	c #7470A9",
"n%	c #212136",
"o%	c #0D0E18",
"p%	c #282B57",
"q%	c #2A2B4C",
"r%	c #272639",
"s%	c #282639",
"t%	c #59518E",
"u%	c #9583FE",
"v%	c #201B38",
"w%	c #1E1936",
"x%	c #0F0C1A",
"y%	c #3C326B",
"z%	c #806EE1",
"A%	c #C0B8FE",
"B%	c #A3A2FE",
"C%	c #7176E4",
"D%	c #353F89",
"E%	c #28326E",
"F%	c #B0B5F9",
"G%	c #707DEF",
"H%	c #B8AEFF",
"I%	c #B9AEFF",
"J%	c #B5A8FF",
"K%	c #9A84F8",
"L%	c #9D89F5",
"M%	c #B3ADFE",
"N%	c #C1C5FE",
"O%	c #C2CBFE",
"P%	c #D2D3FF",
"Q%	c #3D3C55",
"R%	c #242239",
"S%	c #11101D",
"T%	c #12111D",
"U%	c #191A31",
"V%	c #1F1F34",
"W%	c #282739",
"X%	c #AA9DFE",
"Y%	c #9989FE",
"Z%	c #2F2954",
"`%	c #2E2753",
" &	c #8A75F7",
".&	c #8F7BFC",
"+&	c #9E8DFE",
"@&	c #6B71D9",
"#&	c #293473",
"$&	c #898CCD",
"%&	c #6677C5",
"&&	c #BDB5FF",
"*&	c #B0A0FF",
"=&	c #9076F0",
"-&	c #A89AF8",
";&	c #C9CEFF",
">&	c #748DEE",
",&	c #5F6FD7",
"'&	c #A5AAFD",
")&	c #17161D",
"!&	c #272539",
"~&	c #2F2B55",
"{&	c #1D1A36",
"]&	c #11101C",
"^&	c #8482D4",
"/&	c #322C55",
"(&	c #201C39",
"_&	c #8D79FC",
":&	c #8E7AFD",
"<&	c #9A88FF",
"[&	c #B6AAFE",
"}&	c #B7B3FF",
"|&	c #686DD0",
"1&	c #30397D",
"2&	c #969BE2",
"3&	c #203170",
"4&	c #C2BAFF",
"5&	c #B3A5FF",
"6&	c #A691FC",
"7&	c #8F77EB",
"8&	c #C6C4FE",
"9&	c #D2D9FE",
"0&	c #8590F3",
"a&	c #4454AE",
"b&	c #4F5CB5",
"c&	c #2C2C39",
"d&	c #1E1B37",
"e&	c #29234C",
"f&	c #201D36",
"g&	c #4A487E",
"h&	c #8182E6",
"i&	c #4C4970",
"j&	c #14121D",
"k&	c #231F39",
"l&	c #221D39",
"m&	c #7363C6",
"n&	c #9B8AFE",
"o&	c #B3A6FE",
"p&	c #B2ADFE",
"q&	c #6266C8",
"r&	c #6468B9",
"s&	c #5363B4",
"t&	c #1D2D6A",
"u&	c #213272",
"v&	c #C4BDFF",
"w&	c #B2A2FE",
"x&	c #9077EF",
"y&	c #A69AF6",
"z&	c #CBCFFF",
"A&	c #C8C6FE",
"B&	c #C4C5FF",
"C&	c #838CF1",
"D&	c #2D3875",
"E&	c #14172D",
"F&	c #C6C3FE",
"G&	c #695CC0",
"H&	c #29224B",
"I&	c #1A1630",
"J&	c #1E1A35",
"K&	c #9C94FA",
"L&	c #8484EB",
"M&	c #45446E",
"N&	c #14131D",
"O&	c #13111D",
"P&	c #A394FE",
"Q&	c #AEAAFE",
"R&	c #6166C9",
"S&	c #8180DD",
"T&	c #3E4EA0",
"U&	c #27387C",
"V&	c #BCB3FF",
"W&	c #9F89F6",
"X&	c #9581ED",
"Y&	c #C3C4FF",
"Z&	c #B1B1FE",
"`&	c #A8A0FE",
" *	c #BBB6FE",
".*	c #C3C3FE",
"+*	c #656CBB",
"@*	c #171C3B",
"#*	c #1D2242",
"$*	c #A6AAFC",
"%*	c #6E6D8D",
"&*	c #978AFE",
"**	c #594DA3",
"=*	c #262048",
"-*	c #7E6BE5",
";*	c #9E92F9",
">*	c #8D8CF3",
",*	c #6C6CBB",
"'*	c #3C3955",
")*	c #A49BE2",
"!*	c #B4A9FE",
"~*	c #ACA8FE",
"{*	c #656AD1",
"]*	c #928EF3",
"^*	c #4251A5",
"/*	c #2F3F89",
"(*	c #263678",
"_*	c #A998FC",
":*	c #8E76E8",
"<*	c #C3BCFC",
"[*	c #BFC2FF",
"}*	c #9F9BFE",
"|*	c #998FFE",
"1*	c #A39AFE",
"2*	c #BAB5FE",
"3*	c #C2C3FE",
"4*	c #828BEF",
"5*	c #4555B0",
"6*	c #5A68C9",
"7*	c #A7ABFB",
"8*	c #C7C4FE",
"9*	c #9689FE",
"0*	c #8674F4",
"a*	c #7967E1",
"b*	c #705ED5",
"c*	c #7865DE",
"d*	c #9B8CF9",
"e*	c #9390F2",
"f*	c #7B7CEA",
"g*	c #A09DFB",
"h*	c #BCB6FE",
"i*	c #C1BAFE",
"j*	c #A09EFE",
"k*	c #938FF5",
"l*	c #4A57AF",
"m*	c #384695",
"n*	c #2F3E87",
"o*	c #9D87FA",
"p*	c #A9A0F9",
"q*	c #CDCFFF",
"r*	c #B9BCFF",
"s*	c #9790FE",
"t*	c #9185FE",
"u*	c #978CFE",
"v*	c #A49BFE",
"w*	c #BCB7FF",
"x*	c #C2C2FE",
"y*	c #4353AD",
"z*	c #5D6ACD",
"A*	c #A8ACFD",
"B*	c #ACA5FE",
"C*	c #7966E0",
"D*	c #6F5CD3",
"E*	c #7562DC",
"F*	c #9586F7",
"G*	c #A7A2FB",
"H*	c #7678E7",
"I*	c #8484F1",
"J*	c #9897FD",
"K*	c #8A8AFA",
"L*	c #6E71E0",
"M*	c #928FEF",
"N*	c #6A70C3",
"O*	c #394697",
"P*	c #374493",
"Q*	c #AC9DFE",
"R*	c #797CE8",
"S*	c #AAAFFB",
"T*	c #BDBFFF",
"U*	c #968EFE",
"V*	c #8D80FE",
"W*	c #9084FE",
"X*	c #978BFE",
"Y*	c #A49BFF",
"Z*	c #BBB5FE",
"`*	c #838CF0",
" =	c #4151A8",
".=	c #5A67C9",
"+=	c #C9C6FE",
"@=	c #ACA5FF",
"#=	c #8573F3",
"$=	c #6E5CD3",
"%=	c #7360D8",
"&=	c #9281F8",
"*=	c #AAA3FC",
"==	c #7A7CE7",
"-=	c #7275E4",
";=	c #7779EB",
">=	c #7476E7",
",=	c #7B7CEC",
"'=	c #A49FF2",
")=	c #36418F",
"!=	c #394696",
"~=	c #9997F2",
"{=	c #666DD4",
"]=	c #6F77DB",
"^=	c #BABCFE",
"/=	c #978FFE",
"(=	c #8B7CFE",
"_=	c #8C7EFE",
":=	c #978CFF",
"<=	c #BAB4FE",
"[=	c #C4C3FE",
"}=	c #868FF2",
"|=	c #4454AD",
"1=	c #5765C7",
"2=	c #C8C5FF",
"3=	c #8574F3",
"4=	c #725ED7",
"5=	c #8C7AF4",
"6=	c #8989F1",
"7=	c #7577E9",
"8=	c #7A7CEF",
"9=	c #A59DFE",
"0=	c #9A96E7",
"a=	c #404A9B",
"b=	c #3B4594",
"c=	c #36418C",
"d=	c #9A9FEC",
"e=	c #9993FE",
"f=	c #897BFE",
"g=	c #8A7CFE",
"h=	c #9084FF",
"i=	c #848DF1",
"j=	c #5B69CC",
"k=	c #AEA6FE",
"l=	c #735FD7",
"m=	c #8A79F1",
"n=	c #ADA3FE",
"o=	c #9695FA",
"p=	c #787AEC",
"q=	c #787AED",
"r=	c #908EFA",
"s=	c #A899FE",
"t=	c #9C96F1",
". + @ # $ % & * = - ; > , ' ) ! ~ { ] ^ / ( _ : < [ } | 1 2 3 4 ",
"5 6 7 8 9 0 a b c d e f g h i j k l m n ^ o p q r s t u v w x y ",
"z A B C D E F G H I J K L M N O P Q R S T U V W X Y Z `  ...+.@.",
"#.$.%.6 &.*.=.-.;.>.,.'.).!.~.{.].^./.(._.:.<.[.}.|.1.2.3.4.5.6.",
"7.#.8.%.6 &.*.9.0.a.a.b.c.d.e.a.f.g.a.a.a.a.a.h.i.j.k.l.m.n.o.p.",
"q.r.#.8.A 6 s.t.u.v.a.w.x.y.z.A.A.B.C.a.a.a.a.D.E.F.G.H.I.J.K.L.",
"M.N.7.O.%.A P.Q.R.S.a.T.U.V.W.X.Y.Z.`. +S .+++@+#+$+%+&+*+=+-+;+",
">+,+'+)+#.z %.!+~+{+a.]+a.0.^+/+(+_+:+<+[+}+|+1+2+3+4+5+6+7+8+9+",
"0+a+b+c+d+e+$.%.f+g+a.h+a.i+j+k+) l+m+a.a.a.n+o+p+q+r+s+t+u+v+w+",
"x+y+z+A+B+C+D+z E+F+a.G+H+I+}+J+K+L+M+A.N+O+P+Q+R+S+T+U+V+W+X+Y+",
"Z+`+ @a+,+c+.@+@@@#@a.$@%@&@*@*@W.=@-@;@>@,@a.'@)@!@~@{@]@^@/@(@",
"_@Z+:@<@[@}@|@C+1@@@2@P.3@4@5@6@7@8@9@0@a@b@c@d@e@f@g@h@i@j@k@l@",
"m@_@Z+:@n@o@p@q@r@s@t@u@P.v@w@x@y@z@A@B@- C@D@E@F@G@#.H@I@J@K@L@",
"M@m@N@O@P@Q@R@S@T@U@V@W@%.X@Y@Z@`@ #.#+#@###$#%#&#*#=#-#;#>#,#'#",
")#!#~#{#]#^#/#(#_#:#<#[#}#|#1#2#3#4#5#6#7#8#9#0#a#b#c#d#e#f#g#h#",
"i#j#k#l#m#n#o#p#q#r#s#t#u#v#w#x#y#z#A#B#C#D#E#F#G#H#I#J#K#L#M#N#",
"O#P#Q#R#l S#T#U#V#/+W#X#Y#Z#`# $.$+$@$#$$$%$&$*$=$-$;$>$,$'$)$!$",
"~${$]$^$/$($_$:$<$m [$}$|$1$2$3$4$5$6$7$8$9$0$p#a$b$c$d$e$f$g$h$",
"i$j$k$l$m$n$o$p$q$r$s$t$9#u$v$w$x$y$z$A$B$C$D$E$F$G$H$I$J$K$L$M$",
"N$~$O$P$Q$R$S$T$U$V$W$X$Y$Z$a.`$ %.%+%@%#%$%a.%%&%*%=%-%;%[#>%,%",
"'%)%!%~%{%]%^%/%(%_%a.:%<%[%}%a.|%1%2%3%4%5%6%7%8%9%0%a%b%[#c%d%",
"{#e%f%g%h%i%j%k%l%m%n%o%p%q%r%s%t%u%1%v%w%x%y%z%u$A%B%C%D%E%F%G%",
"H%I%J%K%L%M%N%O%P%Q%R%S%T%a.U%V%W%X%Y%a.Z%`% &.&+&^#S#@&#&$&%&c+",
"&&J%*&=&-&;&>&,&'&)&!&a.~&{&a.]&a.^&D@a./&(&_&:&<&[&}&|&1&2&3&)+",
"4&5&6&7&8&9&0&a&b&a.c&r%S%d&e&4%f&g&h&i&j&k&l&m&n&o&p&q&r&s&t&u&",
"v&w&x&y&z&A&B&C&D&E&a.F&a.S%G&H&I&J&K&L&M&N&O&`$P&[&Q&R&S&T&U&t&",
"V&W&X&Y&Z&`& *.*+*@*#*$*%*`.&***H&=*-*;*>*,*'*)*!*/.~*{*]*^*/*(*",
"_*:*<*[*}*|*1*2*3*4*5*6*7*8*} 9*0*a*b*c*d*e*f*g*h*i*j*9.k*l*m*n*",
"o*p*q*r*s*t*u*v*w*x*4*y*z*A*0#B*9*0*C*D*E*F*G*H*I*J*K*L*M*N*O*P*",
"Q*R*S*T*U*V*W*X*Y*Z*.*`* =.=A*+=@=9*#=C*$=%=&=*===-=;=>=,='=)=!=",
"~={=]=^=/=(=_=W*:=1*<=[=}=|=1=A*2=} &*3=C*$=4=5=B@6=>=7=8=9=0=a=",
"&.b=c=d=e=f=g=_=h=u*1*2*.*i= =j=A*8*k=&*3=C*$=l=m=n=o=p=q=r=s=t="};
