/* XPM */
static char * iceMC_16x16_xpm[] = {
"16 16 249 2",
"  	c None",
". 	c #293574",
"+ 	c #737ADE",
"@ 	c #BABEFD",
"# 	c #D5E5FE",
"$ 	c #CBD4FE",
"% 	c #BBB2FE",
"& 	c #C9DEFE",
"* 	c #D8F4FE",
"= 	c #C3BBFE",
"- 	c #A79CFE",
"; 	c #8C7CFC",
"> 	c #806CEA",
", 	c #9080FA",
"' 	c #AFA9FE",
") 	c #A8A6FB",
"! 	c #525BA7",
"~ 	c #142251",
"{ 	c #283472",
"] 	c #5E66CB",
"^ 	c #8688F2",
"/ 	c #AAA9F9",
"( 	c #D0D8FE",
"_ 	c #CEFCFE",
": 	c #CEFBFE",
"< 	c #C9C2FE",
"[ 	c #C5C0FE",
"} 	c #A497FE",
"| 	c #8872F1",
"1 	c #8580F5",
"2 	c #66ACFE",
"3 	c #7CD6FE",
"4 	c #82D1FA",
"5 	c #364696",
"6 	c #142252",
"7 	c #273372",
"8 	c #5E66CC",
"9 	c #242446",
"0 	c #383553",
"a 	c #9090B8",
"b 	c #262632",
"c 	c #5D5286",
"d 	c #0F0E15",
"e 	c #000000",
"f 	c #42386E",
"g 	c #89A1FC",
"h 	c #8EF8FE",
"i 	c #57AFF6",
"j 	c #3D5BB8",
"k 	c #717CE8",
"l 	c #374797",
"m 	c #2A3677",
"n 	c #373C6F",
"o 	c #3C3F62",
"p 	c #1A1A2E",
"q 	c #4E4877",
"r 	c #897BCD",
"s 	c #3C424E",
"t 	c #79779C",
"u 	c #6F6CB4",
"v 	c #A8B0FB",
"w 	c #94EEFE",
"x 	c #537EE6",
"y 	c #4C62C7",
"z 	c #B0B2FE",
"A 	c #707BE6",
"B 	c #334390",
"C 	c #142150",
"D 	c #10142C",
"E 	c #464A7C",
"F 	c #242639",
"G 	c #5A606A",
"H 	c #A8BEC6",
"I 	c #252732",
"J 	c #5D5A7F",
"K 	c #444988",
"L 	c #6471C0",
"M 	c #B6D3FE",
"N 	c #5B9AE7",
"O 	c #576BD6",
"P 	c #C6C0FF",
"Q 	c #B1B2FF",
"R 	c #707BE7",
"S 	c #32418C",
"T 	c #080E20",
"U 	c #1C234C",
"V 	c #545AB0",
"W 	c #28284B",
"X 	c #5A5898",
"Y 	c #3F3E55",
"Z 	c #3A3554",
"` 	c #42467A",
" .	c #29397E",
"..	c #7A84CF",
"+.	c #A0CFFC",
"@.	c #4660C0",
"#.	c #A89CFF",
"$.	c #C5C0FF",
"%.	c #AAAAFE",
"&.	c #6E74E1",
"*.	c #2F3C82",
"=.	c #121F4B",
"-.	c #737CE5",
";.	c #A5ACFD",
">.	c #A6A3F9",
",.	c #9B8AF4",
"'.	c #B0AAFE",
").	c #5B68CB",
"!.	c #253576",
"~.	c #949FE0",
"{.	c #6290CD",
"].	c #9C8DFF",
"^.	c #A89BFF",
"/.	c #BDB3FE",
"(.	c #B4ABFE",
"_.	c #8E88E2",
":.	c #3A3E7E",
"<.	c #111A41",
"[.	c #26306B",
"}.	c #6267CD",
"|.	c #7874D6",
"1.	c #7E6CDE",
"2.	c #B3AAFE",
"3.	c #8D92FA",
"4.	c #4856B2",
"5.	c #293979",
"6.	c #9CB0E4",
"7.	c #B0A3FE",
"8.	c #9987FF",
"9.	c #AFA9FD",
"0.	c #8E90F0",
"a.	c #B4ADFE",
"b.	c #AA9EFD",
"c.	c #7670C2",
"d.	c #1C2046",
"e.	c #131737",
"f.	c #1C1C3E",
"g.	c #7660D4",
"h.	c #AA9EFE",
"i.	c #9C9DFC",
"j.	c #5660C2",
"k.	c #1E2B64",
"l.	c #6773B1",
"m.	c #B8ACFF",
"n.	c #9D8BFD",
"o.	c #8C86E8",
"p.	c #2A3473",
"q.	c #4C56A6",
"r.	c #63608C",
"s.	c #AA9DFE",
"t.	c #504A7C",
"u.	c #6B63B2",
"v.	c #7C71CA",
"w.	c #6753B6",
"x.	c #685DA8",
"y.	c #B5B1FE",
"z.	c #686FD6",
"A.	c #1F2A60",
"B.	c #656EA8",
"C.	c #B7ACFF",
"D.	c #A897FC",
"E.	c #887EE6",
"F.	c #7F80D6",
"G.	c #7173BE",
"H.	c #10111E",
"I.	c #545383",
"J.	c #1D1C2B",
"K.	c #8272DB",
"L.	c #6E5EC2",
"M.	c #161226",
"N.	c #372F61",
"O.	c #B5ABFE",
"P.	c #8588EF",
"Q.	c #293372",
"R.	c #8C94E6",
"S.	c #B9AEFF",
"T.	c #A490FA",
"U.	c #B0A8FA",
"V.	c #96A3F0",
"W.	c #73749C",
"X.	c #171624",
"Y.	c #18162A",
"Z.	c #121220",
"`.	c #565283",
" +	c #524C7F",
".+	c #2C264D",
"++	c #8D79FB",
"@+	c #AA9CFE",
"#+	c #8F90EA",
"$+	c #5E65A8",
"%+	c #4354A4",
"&+	c #BBB0FF",
"*+	c #9B86F3",
"=+	c #CBCCFE",
"-+	c #848DE4",
";+	c #242B56",
">+	c #46455C",
",+	c #100F1C",
"'+	c #322B5C",
")+	c #282546",
"!+	c #7B79CF",
"~+	c #242238",
"{+	c #2E284E",
"]+	c #8989E3",
"^+	c #5E66BA",
"/+	c #203170",
"(+	c #A492F6",
"_+	c #B6B1FA",
":+	c #A49FFE",
"<+	c #B7B2FE",
"[+	c #7076B9",
"}+	c #5862AE",
"|+	c #8685B7",
"1+	c #8D82E7",
"2+	c #54479A",
"3+	c #8170E4",
"4+	c #8A85E6",
"5+	c #7F7BC7",
"6+	c #BCB4FE",
"7+	c #8788EA",
"8+	c #6C71CF",
"9+	c #2F3E87",
"0+	c #9B90F6",
"a+	c #BBBEFE",
"b+	c #9389FE",
"c+	c #988EFE",
"d+	c #838BE2",
"e+	c #6874CF",
"f+	c #B9B7FE",
"g+	c #988BFC",
"h+	c #7A67E2",
"i+	c #7B69E0",
"j+	c #9690F6",
"k+	c #8283EE",
"l+	c #797AEB",
"m+	c #8786E4",
"n+	c #384494",
"o+	c #5F66BF",
"p+	c #7E85D4",
"q+	c #9186FE",
"r+	c #8C7FFE",
"s+	c #6773CE",
"t+	c #988CFB",
"u+	c #7967E2",
"v+	c #7865DD",
"w+	c #9C93F8",
"x+	c #7E7FEE",
"y+	c #8A88F5",
"z+	c #8884DC",
". + @ # $ % & * = - ; > , ' ) ! ",
"~ { ] ^ / ( _ : < [ } | 1 2 3 4 ",
"5 6 7 8 9 0 a b c d e f g h i j ",
"k l ~ m n o p q r s t u v w x y ",
"z A B C D E F G H I J K L M N O ",
"P Q R S T U V W X Y Z `  ...+.@.",
"#.$.%.&.*.=.m -.;.>.,.'.).!.~.{.",
"].^./.(._.:.<.[.}.|.1.2.3.4.5.6.",
"7.8.9.0.a.b.c.d.e.f.g.h.i.j.k.l.",
"m.n.o.p.q.r.s.t.u.v.w.x.y.z.A.B.",
"C.D.E.F.G.H.I.J.K.L.M.N.O.P.Q.R.",
"S.T.U.V.W.X.Y.Z.`. +.+++@+#+$+%+",
"&+*+=+-+;+>+,+'+)+!+~+{+@+]+^+/+",
"(+_+:+<+[+}+|+1+2+3+4+5+6+7+8+9+",
"0+a+b+c+<+d+e+f+g+h+i+j+k+l+m+n+",
"o+p+q+r+c+<+-+s+f+t+u+v+w+x+y+z+"};
